<svg xmlns="http://www.w3.org/2000/svg" width="94" height="108" viewBox="0 0 94 108">
    <defs>
        <linearGradient id="a" x1="50%" x2="50%" y1="0%" y2="100%">
            <stop offset="0%" stop-color="#8AD5E2"/>
            <stop offset="100%" stop-color="#51599A" stop-opacity=".64"/>
        </linearGradient>
        <linearGradient id="b" x1="16.303%" x2="74.553%" y1="11.925%" y2="77.554%">
            <stop offset="0%" stop-color="#8AD5E2"/>
            <stop offset="100%" stop-color="#51599A" stop-opacity=".64"/>
        </linearGradient>
    </defs>
    <g fill="none" fill-rule="evenodd">
        <g stroke="#7CCAF9" stroke-width=".5" opacity=".321">
            <path d="M47 2l45.033 26v52L47 106 1.967 80V28z" opacity=".88"/>
            <path fill-rule="nonzero" stroke-linecap="square" d="M47 2v102M1.967 28l90.066 52M47 3.5L92.033 80M92.033 28L1.967 80M47 3.5L1.967 80" opacity=".88"/>
        </g>
        <path d="M-13-6h120v120H-13z"/>
        <g fill="#80CEFF" fill-rule="nonzero">
            <circle cx="47" cy="2" r="2"/>
            <circle cx="47" cy="106" r="2"/>
            <circle cx="92" cy="80" r="2"/>
            <circle cx="92" cy="28" r="2"/>
            <circle cx="2" cy="28" r="2"/>
            <circle cx="2" cy="80" r="2"/>
        </g>
        <g fill-rule="nonzero" transform="translate(2 9)">
            <circle cx="45" cy="45" r="45" fill="url(#a)" opacity=".24"/>
            <circle cx="22" cy="6" r="3" fill="#7CCAF9"/>
            <circle cx="22" cy="83" r="3" fill="#7CCAF9"/>
            <circle cx="68" cy="6" r="3" fill="#7CCAF9"/>
            <circle cx="68" cy="83" r="3" fill="#7CCAF9"/>
            <circle cx="45" cy="45" r="45" stroke="#7CCAF9"/>
        </g>
        <path fill="url(#b)" d="M33.313 30.55c3.412-1.438 6.106-3.396 8.08-5.874 1.974-2.478 2.96-5.177 2.96-8.096 0-2.92-.986-5.618-2.96-8.096-1.974-2.478-4.668-4.436-8.08-5.875C29.9 1.17 26.189.45 22.177.45c-4.011 0-7.723.72-11.136 2.158-3.412 1.439-6.106 3.397-8.08 5.875C.987 10.962 0 13.661 0 16.58c0 2.499.746 4.852 2.237 7.057S5.776 27.7 8.38 29.213c-.21.504-.425.966-.646 1.386a8.01 8.01 0 0 1-.787 1.213c-.305.389-.541.693-.71.913-.167.22-.44.53-.819.93-.378.398-.62.66-.724.787 0-.022-.042.026-.126.141-.084.116-.132.168-.142.158-.01-.011-.053.041-.126.157l-.11.173-.08.158a.661.661 0 0 0-.062.188c-.01.063-.016.132-.016.205 0 .073.01.141.032.204.042.273.162.493.362.662.2.168.414.251.646.251h.094a26.349 26.349 0 0 0 2.71-.504c3.234-.84 6.153-2.184 8.757-4.032 1.89.336 3.738.504 5.544.504 4.011.001 7.723-.718 11.136-2.156z" transform="translate(20 32)"/>
        <path stroke="#7CCAF9" d="M53.313 62.55c3.412-1.438 6.106-3.396 8.08-5.874 1.974-2.478 2.96-5.177 2.96-8.096 0-2.92-.986-5.618-2.96-8.096-1.974-2.478-4.668-4.436-8.08-5.875-3.413-1.439-7.124-2.158-11.136-2.158-4.011 0-7.723.72-11.136 2.158-3.412 1.439-6.106 3.397-8.08 5.875C20.987 42.962 20 45.661 20 48.58c0 2.499.746 4.852 2.237 7.057s3.539 4.064 6.143 5.576c-.21.504-.425.966-.646 1.386a8.01 8.01 0 0 1-.787 1.213c-.305.389-.541.693-.71.913-.167.22-.44.53-.819.93-.378.398-.62.66-.724.787 0-.022-.042.026-.126.141-.084.116-.132.168-.142.158-.01-.011-.053.041-.126.157l-.11.173-.08.158a.661.661 0 0 0-.062.188c-.01.063-.016.132-.016.205 0 .073.01.141.032.204.042.273.162.493.362.662.2.168.414.251.646.251h.094a26.349 26.349 0 0 0 2.71-.504c3.234-.84 6.153-2.184 8.757-4.032 1.89.336 3.738.504 5.544.504 4.011.001 7.723-.718 11.136-2.156z"/>
        <path fill="url(#a)" d="M54.213 31.715c1.492-2.195 2.237-4.552 2.237-7.072 0-2.583-.788-4.998-2.362-7.245-1.575-2.247-3.718-4.116-6.427-5.607a16.26 16.26 0 0 1 .725 4.788c0 2.814-.703 5.481-2.111 8.001-1.407 2.52-3.423 4.746-6.048 6.678-2.437 1.764-5.209 3.119-8.317 4.064-3.108.945-6.352 1.418-9.734 1.418-.63 0-1.554-.042-2.772-.126 4.221 2.772 9.178 4.158 14.869 4.158 1.806 0 3.654-.168 5.545-.504 2.603 1.848 5.523 3.192 8.757 4.032.756.19 1.659.357 2.709.504a.949.949 0 0 0 .693-.22c.21-.168.347-.399.41-.693-.01-.126 0-.194.031-.205.031-.01.026-.078-.015-.204l-.063-.19-.079-.156a1.51 1.51 0 0 0-.11-.173 1.414 1.414 0 0 0-.126-.158 3.486 3.486 0 0 1-.142-.157 21.946 21.946 0 0 0-.85-.93 12.541 12.541 0 0 1-.819-.928 96.68 96.68 0 0 0-.709-.914 7.952 7.952 0 0 1-.787-1.212c-.22-.42-.436-.882-.646-1.386 2.603-1.514 4.651-3.367 6.141-5.563z" opacity=".48" transform="translate(20 32)"/>
        <path stroke="#7CCAF9" d="M74.213 63.715c1.492-2.195 2.237-4.552 2.237-7.072 0-2.583-.788-4.998-2.362-7.245-1.575-2.247-3.718-4.116-6.427-5.607a16.26 16.26 0 0 1 .725 4.788c0 2.814-.703 5.481-2.111 8.001-1.407 2.52-3.423 4.746-6.048 6.678-2.437 1.764-5.209 3.119-8.317 4.064-3.108.945-6.352 1.418-9.734 1.418-.63 0-1.554-.042-2.772-.126 4.221 2.772 9.178 4.158 14.869 4.158 1.806 0 3.654-.168 5.545-.504 2.603 1.848 5.523 3.192 8.757 4.032.756.19 1.659.357 2.709.504a.949.949 0 0 0 .693-.22c.21-.168.347-.399.41-.693-.01-.126 0-.194.031-.205.031-.01.026-.078-.015-.204l-.063-.19-.079-.156a1.51 1.51 0 0 0-.11-.173 1.414 1.414 0 0 0-.126-.158 3.486 3.486 0 0 1-.142-.157 21.946 21.946 0 0 0-.85-.93 12.541 12.541 0 0 1-.819-.928 96.68 96.68 0 0 0-.709-.914 7.952 7.952 0 0 1-.787-1.212c-.22-.42-.436-.882-.646-1.386 2.603-1.514 4.651-3.367 6.141-5.563z"/>
        <g fill="#7CCAF9" fill-rule="nonzero">
            <path d="M39.25 54.292l-.546.547a.344.344 0 0 1-.25.109.344.344 0 0 1-.25-.11l-5.09-5.089a.34.34 0 0 1 0-.5l5.086-5.091a.344.344 0 0 1 .25-.11c.099.001.187.043.25.11l.546.546a.34.34 0 0 1 0 .5l-4.293 4.292 4.293 4.292a.34.34 0 0 1 .108.25v.007c0 .098-.04.185-.104.248zm6.454-11.652L41.63 56.739a.357.357 0 0 1-.167.211h-.002a.302.302 0 0 1-.258.028h.001l-.677-.185a.357.357 0 0 1-.212-.168v-.001a.326.326 0 0 1-.027-.27v.002l4.073-14.099a.357.357 0 0 1 .167-.212h.002a.302.302 0 0 1 .258-.027h-.002l.678.185a.357.357 0 0 1 .211.167l.001.002a.326.326 0 0 1 .027.27v-.002zm7.175 7.109l-5.09 5.089a.342.342 0 0 1-.502 0l-.546-.546a.342.342 0 0 1 0-.502l4.292-4.293-4.292-4.292a.342.342 0 0 1 0-.502l.546-.546a.342.342 0 0 1 .502 0l5.09 5.09a.342.342 0 0 1 0 .501v.001z"/>
        </g>
    </g>
</svg>
