<svg xmlns="http://www.w3.org/2000/svg" width="120" height="120" viewBox="0 0 120 120">
    <defs>
        <linearGradient id="a" x1="50%" x2="50%" y1="0%" y2="100%">
            <stop offset="0%" stop-color="#8AD5E2"/>
            <stop offset="100%" stop-color="#51599A" stop-opacity=".64"/>
        </linearGradient>
        <linearGradient id="b" x1="15.167%" x2="88.024%" y1="0%" y2="88.928%">
            <stop offset="0%" stop-color="#8AD5E2"/>
            <stop offset="100%" stop-color="#51599A" stop-opacity=".64"/>
        </linearGradient>
    </defs>
    <g fill="none" fill-rule="evenodd">
        <path d="M0 0h120v120H0z"/>
        <g fill="#80CEFF" fill-rule="nonzero" transform="translate(13 6)">
            <circle cx="47" cy="2" r="2"/>
            <circle cx="47" cy="106" r="2"/>
            <circle cx="92" cy="80" r="2"/>
            <circle cx="92" cy="28" r="2"/>
            <circle cx="2" cy="28" r="2"/>
            <circle cx="2" cy="80" r="2"/>
        </g>
        <g fill-rule="nonzero" transform="translate(36 35)">
            <path fill="url(#a)" d="M40.81 26.705c.09-.72.158-1.44.158-2.205 0-.765-.068-1.485-.158-2.205l4.772-3.713c.43-.337.543-.945.271-1.44L41.33 9.358c-.272-.495-.882-.676-1.38-.495l-5.632 2.25a16.545 16.545 0 0 0-3.822-2.205l-.86-5.963C29.57 2.405 29.095 2 28.529 2h-9.046c-.566 0-1.04.405-1.109.945l-.86 5.963c-1.379.562-2.645 1.327-3.821 2.205L8.06 8.863c-.52-.203-1.108 0-1.38.495l-4.523 7.784a1.105 1.105 0 0 0 .271 1.44L7.2 22.296c-.09.72-.158 1.462-.158 2.205 0 .742.068 1.485.158 2.205l-4.772 3.713c-.43.337-.543.945-.271 1.44l4.523 7.784c.272.495.882.675 1.38.495l5.632-2.25c1.176.9 2.442 1.643 3.822 2.206l.86 5.962c.067.54.542.945 1.108.945h9.046c.566 0 1.04-.405 1.109-.945l.86-5.962c1.379-.563 2.645-1.328 3.821-2.206l5.632 2.25c.52.203 1.108 0 1.38-.495l4.523-7.785c.272-.494.159-1.102-.271-1.44l-4.772-3.712zm-16.805 5.67c-4.365 0-7.916-3.532-7.916-7.875s3.55-7.875 7.916-7.875c4.365 0 7.916 3.532 7.916 7.875s-3.55 7.875-7.916 7.875z" opacity=".48"/>
            <path fill="url(#b)" stroke="#7CCAF9" d="M40.81 26.705c.09-.72.158-1.44.158-2.205 0-.765-.068-1.485-.158-2.205l4.772-3.713c.43-.337.543-.945.271-1.44L41.33 9.358c-.272-.495-.882-.676-1.38-.495l-5.632 2.25a16.545 16.545 0 0 0-3.822-2.205l-.86-5.963C29.57 2.405 29.095 2 28.529 2h-9.046c-.566 0-1.04.405-1.109.945l-.86 5.963c-1.379.562-2.645 1.327-3.821 2.205L8.06 8.863c-.52-.203-1.108 0-1.38.495l-4.523 7.784a1.105 1.105 0 0 0 .271 1.44L7.2 22.296c-.09.72-.158 1.462-.158 2.205 0 .742.068 1.485.158 2.205l-4.772 3.713c-.43.337-.543.945-.271 1.44l4.523 7.784c.272.495.882.675 1.38.495l5.632-2.25c1.176.9 2.442 1.643 3.822 2.206l.86 5.962c.067.54.542.945 1.108.945h9.046c.566 0 1.04-.405 1.109-.945l.86-5.962c1.379-.563 2.645-1.328 3.821-2.206l5.632 2.25c.52.203 1.108 0 1.38-.495l4.523-7.785c.272-.494.159-1.102-.271-1.44l-4.772-3.712zm-16.805 5.67c-4.365 0-7.916-3.532-7.916-7.875s3.55-7.875 7.916-7.875c4.365 0 7.916 3.532 7.916 7.875s-3.55 7.875-7.916 7.875z"/>
            <circle cx="29" cy="2.2" r="2" fill="#7CCAF9"/>
            <circle cx="19" cy="2.2" r="2" fill="#7CCAF9"/>
            <circle cx="7.5" cy="9" r="2" fill="#7CCAF9"/>
            <circle cx="40.5" cy="9" r="2" fill="#7CCAF9"/>
            <circle cx="45.5" cy="18" r="2" fill="#7CCAF9"/>
            <circle cx="2.5" cy="18" r="2" fill="#7CCAF9"/>
            <circle cx="2.5" cy="31" r="2" fill="#7CCAF9"/>
            <circle cx="45.5" cy="31" r="2" fill="#7CCAF9"/>
            <circle cx="40.5" cy="40" r="2" fill="#7CCAF9"/>
            <circle cx="7.5" cy="40" r="2" fill="#7CCAF9"/>
            <circle cx="18.5" cy="47" r="2" fill="#7CCAF9"/>
            <circle cx="29.5" cy="47" r="2" fill="#7CCAF9"/>
        </g>
        <g fill-rule="nonzero" transform="translate(14 18)">
            <path fill="url(#a)" d="M45.12-3.033L85 18v48L46 87.033 7 66V18.5z" opacity=".24" transform="rotate(90 46 42)"/>
            <path stroke="#7CCAF9" d="M91.033 41.12L70 81H22L.967 42 22 3h47.5z"/>
            <circle cx="23" cy="3" r="3" fill="#7CCAF9"/>
            <circle cx="23" cy="80" r="3" fill="#7CCAF9"/>
            <circle cx="69" cy="3" r="3" fill="#7CCAF9"/>
            <circle cx="69" cy="80" r="3" fill="#7CCAF9"/>
        </g>
        <g stroke="#7CCAF9" stroke-width=".5" opacity=".321">
            <path d="M60 8l45.033 26v52L60 112 14.967 86V34z" opacity=".88"/>
            <path fill-rule="nonzero" stroke-linecap="square" d="M60 8v102M14.967 34l90.066 52M60 9.5L105.033 86M105.033 34L14.967 86M60 9.5L14.967 86" opacity=".88"/>
        </g>
    </g>
</svg>
