<svg xmlns="http://www.w3.org/2000/svg" width="94" height="108" viewBox="0 0 94 108">
    <defs>
        <linearGradient id="a" x1="5.479%" x2="96.069%" y1="0%" y2="100%">
            <stop offset="0%" stop-color="#8AD5E2"/>
            <stop offset="100%" stop-color="#51599A" stop-opacity=".64"/>
        </linearGradient>
        <linearGradient id="b" x1="50%" x2="50%" y1="0%" y2="100%">
            <stop offset="0%" stop-color="#8AD5E2"/>
            <stop offset="100%" stop-color="#51599A" stop-opacity=".64"/>
        </linearGradient>
        <linearGradient id="c" x1="0%" y1="0%" y2="95.545%">
            <stop offset="0%" stop-color="#8AD5E2"/>
            <stop offset="100%" stop-color="#51599A" stop-opacity=".64"/>
        </linearGradient>
    </defs>
    <g fill="none" fill-rule="evenodd">
        <path d="M-13-6h120v120H-13z"/>
        <g stroke="#7CCAF9" stroke-width=".5" opacity=".321">
            <path d="M47 2l45.033 26v52L47 106 1.967 80V28z" opacity=".88"/>
            <path fill-rule="nonzero" stroke-linecap="square" d="M47 2v102M1.967 28l90.066 52M47 3.5L92.033 80M92.033 28L1.967 80M47 3.5L1.967 80" opacity=".88"/>
        </g>
        <g fill-rule="nonzero">
            <circle cx="47" cy="2" r="2" fill="#80CEFF"/>
            <circle cx="47" cy="106" r="2" fill="#80CEFF"/>
            <circle cx="92" cy="80" r="2" fill="#80CEFF"/>
            <circle cx="92" cy="28" r="2" fill="#80CEFF"/>
            <circle cx="2" cy="28" r="2" fill="#80CEFF"/>
            <circle cx="2" cy="80" r="2" fill="#80CEFF"/>
            <rect width="78" height="78" x="8" y="15" fill="url(#a)" opacity=".24" rx="1"/>
            <path stroke="#7CCAF9" stroke-width="2" d="M9 14.988V92h78V14.013l-78 .975z"/>
            <circle cx="9" cy="15" r="3" fill="#7CCAF9"/>
            <circle cx="86" cy="14" r="3" fill="#7CCAF9"/>
            <circle cx="87" cy="92" r="3" fill="#7CCAF9"/>
            <circle cx="9" cy="91" r="3" fill="#7CCAF9"/>
        </g>
        <path fill="url(#b)" fill-rule="nonzero" d="M48.618 54.586l6.638-4.097v-6.557L66.874 30H37l11.618 13.932z" transform="translate(-5)"/>
        <path fill-rule="nonzero" stroke="#7CCAF9" d="M43.618 54.586l6.638-4.097v-6.557L61.874 30H32l11.618 13.932z"/>
        <g fill-rule="nonzero" transform="translate(17 65)">
            <path fill="url(#c)" d="M1 2h58v25H1z" opacity=".482"/>
            <circle cx="2" cy="2.5" r="2" fill="#7CCAF9"/>
            <circle cx="58.5" cy="2.5" r="2" fill="#7CCAF9"/>
            <path stroke="#7CCAF9" d="M1.5 2.5h57v24h-57z"/>
            <path stroke="#7CCAF9" stroke-linecap="round" stroke-width=".5" d="M2 18.5h4V8h7v10.5h7V6h10v12.5h7v-6.25h5v6.25h6V7h6v11.5h4"/>
            <circle cx="6" cy="18.4" r="1" fill="#7CCAF9"/>
            <circle cx="13" cy="18.4" r="1" fill="#7CCAF9"/>
            <circle cx="20" cy="18.4" r="1" fill="#7CCAF9"/>
            <circle cx="30" cy="18.4" r="1" fill="#7CCAF9"/>
            <circle cx="37" cy="18.4" r="1" fill="#7CCAF9"/>
            <circle cx="42" cy="18.4" r="1" fill="#7CCAF9"/>
            <circle cx="48" cy="18.4" r="1" fill="#7CCAF9"/>
            <circle cx="54" cy="18.4" r="1" fill="#7CCAF9"/>
            <circle cx="6" cy="7.9" r="1" fill="#7CCAF9"/>
            <circle cx="13" cy="7.9" r="1" fill="#7CCAF9"/>
            <circle cx="20" cy="5.9" r="1" fill="#7CCAF9"/>
            <circle cx="30" cy="5.9" r="1" fill="#7CCAF9"/>
            <circle cx="37" cy="12.2" r="1" fill="#7CCAF9"/>
            <circle cx="42" cy="12.2" r="1" fill="#7CCAF9"/>
            <circle cx="48" cy="7" r="1" fill="#7CCAF9"/>
            <circle cx="54" cy="7" r="1" fill="#7CCAF9"/>
        </g>
    </g>
</svg>
