<?xml version="1.0" encoding="UTF-8" standalone="no"?>
<svg width="18px" height="18px" viewBox="0 0 18 18" version="1.1" xmlns="http://www.w3.org/2000/svg" xmlns:xlink="http://www.w3.org/1999/xlink">
    <!-- Generator: Sketch 50.2 (55047) - http://www.bohemiancoding.com/sketch -->
    <title>service_management_icon_def</title>
    <desc>Created with Sketch.</desc>
    <defs></defs>
    <g id="Filter_widget" stroke="none" stroke-width="1" fill="none" fill-rule="evenodd">
        <g id="Filter_dashboard_04_zeplin" transform="translate(-16.000000, -153.000000)">
            <g id="service_management_icon_def" transform="translate(16.000000, 153.000000)">
                <polygon id="Shape" points="0 0 18 0 18 18 0 18"></polygon>
                <path d="M17.025,14.25 L10.2,7.425 C10.875,5.7 10.5,3.675 9.075,2.25 C7.575,0.75 5.325,0.45 3.525,1.275 L6.75,4.5 L4.5,6.75 L1.2,3.525 C0.3,5.325 0.675,7.575 2.175,9.075 C3.6,10.5 5.625,10.875 7.35,10.2 L14.175,17.025 C14.475,17.325 14.925,17.325 15.225,17.025 L16.95,15.3 C17.325,15 17.325,14.475 17.025,14.25 Z" id="Shape" fill="#7A8D97" fill-rule="nonzero"></path>
            </g>
        </g>
    </g>
</svg>