<svg xmlns="http://www.w3.org/2000/svg" width="94" height="108" viewBox="0 0 94 108">
    <defs>
        <linearGradient id="a" x1="50%" x2="50%" y1="0%" y2="100%">
            <stop offset="0%" stop-color="#8AD5E2"/>
            <stop offset="100%" stop-color="#51599A" stop-opacity=".64"/>
        </linearGradient>
        <linearGradient id="b" x1="0%" y1="0%" y2="100%">
            <stop offset="0%" stop-color="#7DFAEB"/>
            <stop offset="100%" stop-color="#7CCAF9"/>
        </linearGradient>
        <linearGradient id="c" x1="0%" y1="0%" y2="100%">
            <stop offset="0%" stop-color="#8AD5E2"/>
            <stop offset="100%" stop-color="#51599A" stop-opacity=".64"/>
        </linearGradient>
    </defs>
    <g fill="none" fill-rule="evenodd">
        <path d="M-13-6h120v120H-13z"/>
        <g fill="#80CEFF" fill-rule="nonzero">
            <circle cx="47" cy="2" r="2"/>
            <circle cx="47" cy="106" r="2"/>
            <circle cx="92" cy="80" r="2"/>
            <circle cx="92" cy="28" r="2"/>
            <circle cx="2" cy="28" r="2"/>
            <circle cx="2" cy="80" r="2"/>
        </g>
        <g transform="translate(1 12)">
            <path fill="url(#a)" fill-rule="nonzero" d="M45.12-3.033L85 18v48L46 87.033 7 66V18.5z" opacity=".24" transform="rotate(90 46 42)"/>
            <path stroke="#7CCAF9" d="M91.033 41.12L70 81H22L.967 42 22 3h47.5z"/>
            <path fill="url(#b)" d="M26.84 10h-5.68c-.64 0-1.16.448-1.16 1 0 .553.52 1 1.16 1h5.68c.64 0 1.16-.447 1.16-1 0-.552-.52-1-1.16-1" transform="translate(23 23)"/>
            <path fill="#7CCAF9" fill-rule="nonzero" d="M68.726 40.43c0 2.386-1.966 4.327-4.383 4.327h-.207l-2.222-4.828a1.138 1.138 0 0 0-1.036-.657H32.121c-.446 0-.85.257-1.035.657l-2.222 4.828h-.207c-2.418 0-4.384-1.941-4.384-4.328V28.57c0-2.385 1.966-4.325 4.383-4.325h1.074v1.739c0 .62.508 1.121 1.136 1.121.628 0 1.137-.501 1.137-1.121v-1.739h8.148v1.739c0 .62.51 1.121 1.137 1.121.628 0 1.137-.501 1.137-1.121v-1.739h8.148v1.739c0 .62.509 1.121 1.136 1.121.628 0 1.137-.501 1.137-1.121v-1.739h8.15v1.739c0 .62.507 1.121 1.135 1.121s1.137-.501 1.137-1.121v-1.739h1.073c2.418 0 4.385 1.94 4.385 4.326v11.86zm-38.365 4.327l1.492-4.241h29.294l1.492 4.24H30.361zM64.342 23H28.658C24.988 23 23 24.947 23 28.57v11.86c0 3.623 1.986 5.57 5.658 5.57h35.684C68.012 46 70 44.052 70 40.43V28.57c0-3.622-1.986-5.57-5.658-5.57z"/>
            <path fill="url(#c)" fill-rule="nonzero" d="M41.343 21.757h-.207l-2.222-4.828a1.138 1.138 0 0 0-1.036-.657H9.121c-.446 0-.85.257-1.035.657l-2.222 4.828h-.207c-2.418 0-4.384-1.941-4.384-4.328V5.57c0-2.385 1.966-4.325 4.383-4.325H6.73v1.739c0 .62.508 1.121 1.136 1.121.628 0 1.137-.501 1.137-1.121V1.244h8.148v1.739c0 .62.51 1.121 1.137 1.121.628 0 1.137-.501 1.137-1.121V1.244h8.148v1.739c0 .62.509 1.121 1.136 1.121.628 0 1.137-.501 1.137-1.121V1.244h8.15v1.739c0 .62.507 1.121 1.135 1.121s1.137-.501 1.137-1.121V1.244h1.073c2.418 0 4.385 1.94 4.385 4.326v11.86c0 2.386-1.966 4.327-4.383 4.327z" opacity=".48" transform="translate(23 23)"/>
            <path fill="#7CCAF9" fill-rule="nonzero" d="M47.422 61.247v-9.44a.81.81 0 0 0-.814-.807.81.81 0 0 0-.815.806v9.441l-.917-.908a.815.815 0 0 0-.576-.237.815.815 0 0 0-.576.237.8.8 0 0 0 0 1.14l2.307 2.285c.152.151.36.236.577.236a.818.818 0 0 0 .576-.236l2.307-2.285a.8.8 0 0 0 0-1.14.815.815 0 0 0-.575-.236.815.815 0 0 0-.576.236l-.919.908h.001zm16.95-3.374c-2.133-1.119-3.361-2.116-3.685-2.993-.35-.944-.325-2.832-.325-3.131 0-.3-.1-.685-.676-.685-.577 0-.762.453-.762 1.155.144 1.813.326 3.014.544 3.603.34.917 1.59 1.973 3.752 3.17l-1.297.002a.804.804 0 0 0-.814.791c0 .437.363.79.812.789l3.26-.005c.45 0 .815-.354.815-.79L66 56.611c0-.21-.085-.41-.237-.558a.822.822 0 0 0-.575-.23.804.804 0 0 0-.815.79l-.001 1.26zm-33.744 0c2.133-1.119 3.361-2.116 3.685-2.993.35-.944.325-2.832.325-3.131 0-.3.1-.685.676-.685.577 0 .762.453.762 1.155-.144 1.813-.326 3.014-.544 3.603-.34.917-1.59 1.973-3.752 3.17l1.297.002c.448 0 .813.355.814.791 0 .21-.085.41-.237.558a.822.822 0 0 1-.575.23l-3.26-.004a.803.803 0 0 1-.815-.79L29 56.611c0-.21.085-.41.237-.558a.822.822 0 0 1 .575-.23c.45 0 .815.354.815.79l.001 1.26z"/>
            <circle cx="23" cy="3" r="3" fill="#7CCAF9" fill-rule="nonzero"/>
            <circle cx="23" cy="80" r="3" fill="#7CCAF9" fill-rule="nonzero"/>
            <circle cx="69" cy="3" r="3" fill="#7CCAF9" fill-rule="nonzero"/>
            <circle cx="69" cy="80" r="3" fill="#7CCAF9" fill-rule="nonzero"/>
        </g>
        <g stroke="#7CCAF9" stroke-width=".5" opacity=".321">
            <path d="M47 2l45.033 26v52L47 106 1.967 80V28z" opacity=".88"/>
            <path stroke-linecap="square" d="M47 2v102M1.967 28l90.066 52M47 3.5L92.033 80M92.033 28L1.967 80M47 3.5L1.967 80" opacity=".88"/>
        </g>
    </g>
</svg>
