<svg xmlns="http://www.w3.org/2000/svg" width="95" height="108" viewBox="0 0 95 108">
    <defs>
        <linearGradient id="a" x1="50%" x2="50%" y1="0%" y2="100%">
            <stop offset="0%" stop-color="#8AD5E2"/>
            <stop offset="100%" stop-color="#51599A" stop-opacity=".64"/>
        </linearGradient>
        <linearGradient id="b" x1="0%" y1="0%" y2="100%">
            <stop offset="0%" stop-color="#8AD5E2"/>
            <stop offset="100%" stop-color="#51599A" stop-opacity=".64"/>
        </linearGradient>
    </defs>
    <g fill="none" fill-rule="evenodd" transform="translate(-4)">
        <g fill="#80CEFF" fill-rule="nonzero" transform="translate(5)">
            <circle cx="47" cy="2" r="2"/>
            <circle cx="47" cy="106" r="2"/>
            <circle cx="92" cy="80" r="2"/>
            <circle cx="92" cy="28" r="2"/>
            <circle cx="2" cy="28" r="2"/>
            <circle cx="2" cy="80" r="2"/>
        </g>
        <g fill-rule="nonzero" transform="translate(4)">
            <path fill="url(#a)" d="M86.75-2.783l-1 90.066L9.25 42.25z" opacity=".24" transform="rotate(90 48 42.25)"/>
            <path stroke="#7CCAF9" d="M93.033 81L2.967 80 48 3.5z"/>
            <circle cx="48" cy="3" r="3" fill="#7CCAF9"/>
            <circle cx="3" cy="80" r="3" fill="#7CCAF9"/>
            <circle cx="92" cy="80" r="3" fill="#7CCAF9"/>
        </g>
        <g stroke="#7CCAF9" stroke-width=".5" opacity=".321">
            <path d="M52 2l45.033 26v52L52 106 6.967 80V28z" opacity=".88"/>
            <path fill-rule="nonzero" stroke-linecap="square" d="M52 2v102M6.967 28l90.066 52M52 3.5L97.033 80M97.033 28L6.967 80M52 3.5L6.967 80" opacity=".88"/>
        </g>
        <circle cx="23.5" cy="63.5" r="2" fill="#7CCAF9" fill-rule="nonzero"/>
        <circle cx="45.5" cy="63.5" r="2" fill="#7CCAF9" fill-rule="nonzero"/>
        <circle cx="45.5" cy="71.5" r="2" fill="#7CCAF9" fill-rule="nonzero"/>
        <circle cx="23.5" cy="71.5" r="2" fill="#7CCAF9" fill-rule="nonzero"/>
        <g fill-rule="nonzero" transform="translate(23 61)">
            <rect width="23" height="9" y="2" fill="url(#b)" opacity=".48" rx="1"/>
            <path stroke="#7CCAF9" d="M.5 2.5h22v8H.5z"/>
            <circle cx="35.5" cy="2.5" r="2" fill="#7CCAF9"/>
            <circle cx="57.5" cy="2.5" r="2" fill="#7CCAF9"/>
            <circle cx="57.5" cy="10.5" r="2" fill="#7CCAF9"/>
            <circle cx="35.5" cy="10.5" r="2" fill="#7CCAF9"/>
            <rect width="23" height="9" x="35" y="2" fill="url(#b)" opacity=".48" rx="1"/>
            <path stroke="#7CCAF9" d="M35.5 2.5h22v8h-22z"/>
        </g>
        <g fill-rule="nonzero">
            <path fill="url(#a)" d="M21.661 20c-6.083 0-16.09-.031-16.273-.031-2.647 0-4.898-2.064-5.323-4.91-.335-2.22.578-5.192 3.984-6.756-.79-3.471 1.126-6.411 3.68-7.63a6.523 6.523 0 0 1 5.02-.314c1.43.5 2.707 1.502 3.68 2.909 1.521-.876 3.316-.938 4.806-.094 1.278.75 2.464 2.315 2.343 4.691 3.254 1.032 4.562 3.941 4.41 6.443C27.775 17.06 25.738 20 21.661 20z" transform="translate(38 27)"/>
            <path stroke="#7CCAF9" d="M59.661 47c-6.083 0-16.09-.031-16.273-.031-2.647 0-4.898-2.064-5.323-4.91-.335-2.22.578-5.192 3.984-6.756-.79-3.471 1.126-6.411 3.68-7.63a6.523 6.523 0 0 1 5.02-.314c1.43.5 2.707 1.502 3.68 2.909 1.521-.876 3.316-.938 4.806-.094 1.278.75 2.464 2.315 2.343 4.691 3.254 1.032 4.562 3.941 4.41 6.443C65.775 44.06 63.738 47 59.661 47z"/>
        </g>
        <path fill-rule="nonzero" stroke="#7CCAF9" stroke-linecap="round" stroke-width=".5" d="M52 41v11"/>
        <path fill="#7CCAF9" fill-rule="nonzero" d="M52 56l2-4h-4z"/>
        <path fill-rule="nonzero" stroke="#7CCAF9" stroke-linecap="round" stroke-width=".5" d="M52 54l-17 9.5M52 54l16.5 9.5"/>
    </g>
</svg>
