<svg xmlns="http://www.w3.org/2000/svg" width="26" height="13" viewBox="0 0 26 13">
    <g fill="none" fill-rule="evenodd">
        <path stroke="#9DB4BF" stroke-linecap="round" stroke-linejoin="round" d="M8.485 3.005l4.104 9.661"/>
        <path fill="#9DB4BF" fill-rule="nonzero" d="M18.793 5.842l2.262-2.262A11.93 11.93 0 0 0 12.592.075 11.93 11.93 0 0 0 4.13 3.58L6.39 5.842a9.188 9.188 0 0 1 12.403 0zM21.672 4.203L19.41 6.464a9.185 9.185 0 0 1 2.41 6.204h3.355a11.932 11.932 0 0 0-3.503-8.465zM3.505 4.203A11.932 11.932 0 0 0 0 12.666h3.356c0-2.296.859-4.51 2.409-6.204l-2.26-2.26z"/>
    </g>
</svg>
