<svg xmlns="http://www.w3.org/2000/svg" width="8" height="15" viewBox="0 0 8 15">
    <g fill="#9DB4BF" fill-rule="evenodd">
        <path d="M4.925 9.817l-.52-.374V4.756h-1.31v4.687l-.52.374c-.502.36-.79.901-.79 1.484 0 1.031.882 1.87 1.965 1.87 1.083 0 1.964-.839 1.964-1.87 0-.583-.287-1.124-.79-1.484"/>
        <path d="M3.75 1.25c-.69 0-1.25.56-1.25 1.25v6.575l-.248.188A2.48 2.48 0 0 0 1.25 11.25c0 1.379 1.122 2.5 2.5 2.5 1.38 0 2.5-1.121 2.5-2.5 0-.782-.365-1.506-1.002-1.988L5 9.075V2.501c0-.69-.56-1.251-1.25-1.251zm0 13.75A3.754 3.754 0 0 1 0 11.25c0-1.071.452-2.067 1.25-2.78V2.5c0-1.378 1.122-2.5 2.5-2.5 1.38 0 2.5 1.122 2.5 2.5v5.97a3.706 3.706 0 0 1 1.25 2.78A3.754 3.754 0 0 1 3.75 15z"/>
    </g>
</svg>
