<svg xmlns="http://www.w3.org/2000/svg" width="16" height="16" viewBox="0 0 16 16">
    <path fill="#9DB4BF" fill-rule="evenodd" d="M4.666 8A3.337 3.337 0 0 0 8 11.335 3.337 3.337 0 0 0 11.334 8 3.338 3.338 0 0 0 8 4.667a3.337 3.337 0 0 0-3.334 3.334zM3.334 8A4.672 4.672 0 0 1 8 3.335a4.672 4.672 0 0 1 4.666 4.667A4.672 4.672 0 0 1 8 12.666a4.672 4.672 0 0 1-4.666-4.665zM8 16a.666.666 0 0 1-.666-.666V14a.665.665 0 1 1 1.332 0v1.334A.666.666 0 0 1 8 16zM8 2.667a.666.666 0 0 1-.666-.666V.666a.666.666 0 1 1 1.332 0v1.335A.666.666 0 0 1 8 2.667zM0 8c0-.369.298-.666.666-.666H2a.665.665 0 1 1 0 1.332H.666A.666.666 0 0 1 0 8zm13.333 0c0-.369.298-.666.666-.666h1.335a.666.666 0 0 1 0 1.332h-1.335A.666.666 0 0 1 13.333 8zm-10.99 5.657a.667.667 0 0 1 0-.943l.942-.943a.666.666 0 1 1 .943.943l-.943.943a.666.666 0 0 1-.943 0zm9.428-9.428a.665.665 0 0 1 0-.943l.943-.943a.667.667 0 0 1 .942.943l-.942.943a.666.666 0 0 1-.943 0zM2.342 2.343c.261-.26.683-.26.943 0l.943.943a.666.666 0 1 1-.943.942l-.943-.942a.667.667 0 0 1 0-.943zm9.43 9.428c.26-.26.68-.26.942 0l.942.944a.668.668 0 0 1-.942.942l-.943-.943a.665.665 0 0 1 0-.943z"/>
</svg>
