<svg xmlns="http://www.w3.org/2000/svg" width="17" height="17" viewBox="0 0 17 17">
    <g fill="none" fill-rule="evenodd">
        <path stroke="#50A7E6" stroke-linecap="round" stroke-linejoin="round" d="M16 9.203V7.797a.234.234 0 0 0-.234-.234h-.58a.233.233 0 0 1-.229-.196 6.544 6.544 0 0 0-.296-1.117.23.23 0 0 1 .1-.282l.5-.288a.234.234 0 0 0 .086-.32l-.703-1.218a.234.234 0 0 0-.32-.086l-.501.29a.232.232 0 0 1-.295-.055 6.63 6.63 0 0 0-.818-.818.231.231 0 0 1-.054-.294l.289-.501a.234.234 0 0 0-.086-.32l-1.218-.705a.234.234 0 0 0-.32.086l-.288.5a.23.23 0 0 1-.282.1 6.522 6.522 0 0 0-1.118-.296.232.232 0 0 1-.195-.229v-.58A.235.235 0 0 0 9.203 1H7.797a.234.234 0 0 0-.234.234v.58c0 .114-.084.21-.196.229-.38.065-.754.164-1.117.296a.23.23 0 0 1-.282-.1l-.288-.5a.234.234 0 0 0-.32-.086l-1.219.703a.234.234 0 0 0-.085.32l.289.501a.231.231 0 0 1-.054.295 6.63 6.63 0 0 0-.818.818.232.232 0 0 1-.295.054l-.5-.29a.234.234 0 0 0-.32.086l-.705 1.22a.234.234 0 0 0 .086.32l.5.288a.23.23 0 0 1 .1.282c-.132.363-.23.737-.296 1.117a.233.233 0 0 1-.229.196h-.58A.234.234 0 0 0 1 7.797v1.406c0 .13.105.234.234.235h.58c.114 0 .21.083.229.195.065.38.164.755.296 1.118a.23.23 0 0 1-.1.282l-.5.288a.234.234 0 0 0-.086.32l.703 1.218a.234.234 0 0 0 .32.085l.501-.288a.232.232 0 0 1 .295.054c.248.296.522.57.818.817.088.072.11.197.054.295l-.289.5a.234.234 0 0 0 .086.321l1.22.704a.234.234 0 0 0 .32-.086l.287-.5a.23.23 0 0 1 .282-.1c.363.132.737.231 1.118.296a.233.233 0 0 1 .196.229v.58c0 .13.104.234.234.234h1.406c.129 0 .234-.105.234-.234v-.58c0-.114.084-.21.196-.229.38-.065.755-.164 1.118-.296a.23.23 0 0 1 .281.1l.289.5a.234.234 0 0 0 .32.086l1.218-.703a.234.234 0 0 0 .085-.32l-.288-.501a.231.231 0 0 1 .054-.295 6.63 6.63 0 0 0 .817-.818.232.232 0 0 1 .295-.054l.501.29a.234.234 0 0 0 .32-.086l.704-1.22a.234.234 0 0 0-.086-.32l-.5-.288a.23.23 0 0 1-.1-.282c.132-.363.231-.737.297-1.117a.232.232 0 0 1 .228-.196h.58A.235.235 0 0 0 16 9.203zm-5.182-.447a2.282 2.282 0 0 1-2.062 2.061 1.265 1.265 0 0 1-.511 0 2.152 2.152 0 0 1-1.129-.435 2.243 2.243 0 0 1-.933-1.626 1.264 1.264 0 0 1 0-.512c.034-.41.185-.801.436-1.128.14-.19.307-.358.497-.498.327-.25.719-.401 1.129-.435.169-.035.343-.035.511 0a2.282 2.282 0 0 1 2.062 2.061c.035.169.035.343 0 .512z"/>
        <path d="M-4-4h24v24H-4z"/>
    </g>
</svg>
