<svg xmlns="http://www.w3.org/2000/svg" width="4" height="15" viewBox="0 0 4 15">
    <g fill="none" fill-rule="evenodd">
        <path fill="#9DB4BF" fill-rule="nonzero" d="M.444 2.087c0-.394.178-.81.467-1.094A1.56 1.56 0 0 1 2 .556c.4 0 .8.175 1.111.437.289.284.445.678.445 1.094 0 .394-.178.787-.445 1.072-.289.284-.689.46-1.111.46-.4 0-.8-.176-1.089-.46a1.534 1.534 0 0 1-.467-1.072zm.467 6.54c.289.285.689.46 1.089.46s.8-.175 1.111-.46c.289-.284.445-.678.445-1.071 0-.394-.178-.81-.445-1.094A1.575 1.575 0 0 0 2 6.024c-.4 0-.8.175-1.089.438a1.545 1.545 0 0 0-.467 1.094c0 .393.178.787.467 1.071zm0 5.47c.289.284.689.459 1.089.459s.8-.175 1.111-.46c.289-.284.445-.678.445-1.072 0-.393-.178-.81-.445-1.093A1.575 1.575 0 0 0 2 11.493c-.4 0-.8.175-1.089.438a1.545 1.545 0 0 0-.467 1.093c0 .394.178.788.467 1.072z"/>
        <path d="M-10-4h24v24h-24z"/>
    </g>
</svg>
