<?xml version="1.0" encoding="UTF-8" standalone="no"?>
<svg width="16px" height="16px" viewBox="0 0 16 16" version="1.1" xmlns="http://www.w3.org/2000/svg" xmlns:xlink="http://www.w3.org/1999/xlink">
    <!-- Generator: Sketch 50.2 (55047) - http://www.bohemiancoding.com/sketch -->
    <title>administration</title>
    <desc>Created with Sketch.</desc>
    <defs></defs>
    <g id="Page-1" stroke="none" stroke-width="1" fill="none" fill-rule="evenodd">
        <g id="administration" transform="translate(-1.000000, -1.000000)">
            <polygon id="Shape" points="0 0 18 0 18 18 0 18"></polygon>
            <path d="M14.9335309,9.735 C14.9643725,9.495 14.9875037,9.255 14.9875037,9 C14.9875037,8.745 14.9643725,8.505 14.9335309,8.265 L16.5604251,7.0275 C16.7069227,6.915 16.7454747,6.7125 16.6529499,6.5475 L15.1108701,3.9525 C15.0183453,3.7875 14.8101645,3.7275 14.6405357,3.7875 L12.7206463,4.5375 C12.3197056,4.2375 11.8879232,3.99 11.4175889,3.8025 L11.1245937,1.815 C11.1014625,1.635 10.9395441,1.5 10.7467842,1.5 L7.66262449,1.5 C7.46986451,1.5 7.30794613,1.635 7.28481493,1.815 L6.99181977,3.8025 C6.52148542,3.99 6.08970306,4.245 5.68876231,4.5375 L3.76887291,3.7875 C3.59153373,3.72 3.39106335,3.7875 3.29853856,3.9525 L1.75645873,6.5475 C1.65622354,6.7125 1.70248594,6.915 1.84898352,7.0275 L3.47587775,8.265 C3.44503615,8.505 3.42190495,8.7525 3.42190495,9 C3.42190495,9.2475 3.44503615,9.495 3.47587775,9.735 L1.84898352,10.9725 C1.70248594,11.085 1.66393394,11.2875 1.75645873,11.4525 L3.29853856,14.0475 C3.39106335,14.2125 3.59924413,14.2725 3.76887291,14.2125 L5.68876231,13.4625 C6.08970306,13.7625 6.52148542,14.01 6.99181977,14.1975 L7.28481493,16.185 C7.30794613,16.365 7.46986451,16.5 7.66262449,16.5 L10.7467842,16.5 C10.9395441,16.5 11.1014625,16.365 11.1245937,16.185 L11.4175889,14.1975 C11.8879232,14.01 12.3197056,13.755 12.7206463,13.4625 L14.6405357,14.2125 C14.8178749,14.28 15.0183453,14.2125 15.1108701,14.0475 L16.6529499,11.4525 C16.7454747,11.2875 16.7069227,11.085 16.5604251,10.9725 L14.9335309,9.735 Z M9.20470433,11.625 C7.71659729,11.625 6.50606462,10.4475 6.50606462,9 C6.50606462,7.5525 7.71659729,6.375 9.20470433,6.375 C10.6928114,6.375 11.903344,7.5525 11.903344,9 C11.903344,10.4475 10.6928114,11.625 9.20470433,11.625 Z" id="Shape" fill="#7A8D97" fill-rule="nonzero"></path>
        </g>
    </g>
</svg>