<?xml version="1.0" encoding="UTF-8"?>
<svg width="18px" height="18px" viewBox="0 0 18 18" version="1.1" xmlns="http://www.w3.org/2000/svg" xmlns:xlink="http://www.w3.org/1999/xlink">
    <!-- Generator: Sketch 51.2 (57519) - http://www.bohemiancoding.com/sketch -->
    <title>thermostat-inactive copy</title>
    <desc>Created with Sketch.</desc>
    <defs></defs>
    <g id="thermostat-inactive-copy" stroke="none" stroke-width="1" fill="none" fill-rule="evenodd">
        <g id="ic-settings-gear-48px">
            <polygon id="Shape" points="0 0 18 0 18 18 0 18"></polygon>
            <path d="M15.1071229,9.78 C15.1400121,9.524 15.1646791,9.264 15.1646791,9 C15.1646791,8.736 15.1400121,8.476 15.1071229,8.22 L16.846142,6.896 C17.002366,6.776 17.0475887,6.56 16.9448098,6.384 L15.3003472,3.612 C15.1975683,3.44 14.9837882,3.368 14.7987861,3.44 L12.7514302,4.244 C12.3279811,3.928 11.8634205,3.66 11.3618594,3.456 L11.0535226,1.336 C11.0165222,1.148 10.8479648,1 10.642407,1 L7.35348185,1 C7.14792403,1 6.97936661,1.148 6.94647736,1.336 L6.63814063,3.456 C6.13657955,3.66 5.67201887,3.924 5.24856976,4.244 L3.20121385,3.44 C3.01621181,3.372 2.80243168,3.44 2.69965277,3.612 L1.0551902,6.384 C0.952411286,6.556 0.997634007,6.772 1.15385795,6.896 L2.88876596,8.22 C2.85587671,8.476 2.83120977,8.736 2.83120977,9 C2.83120977,9.264 2.85587671,9.524 2.88876596,9.78 L1.15385795,11.104 C0.997634007,11.224 0.952411286,11.44 1.0551902,11.616 L2.69965277,14.388 C2.80243168,14.56 3.01621181,14.632 3.20121385,14.56 L5.24856976,13.756 C5.67201887,14.072 6.13657955,14.34 6.63814063,14.544 L6.94647736,16.664 C6.97936661,16.852 7.14792403,17 7.35348185,17 L10.642407,17 C10.8479648,17 11.0165222,16.852 11.0494115,16.664 L11.3577482,14.544 C11.8593093,14.34 12.32387,14.076 12.7473191,13.756 L14.794675,14.56 C14.979677,14.628 15.1934572,14.56 15.2962361,14.388 L16.9406986,11.616 C17.0434776,11.444 16.9982548,11.228 16.8420309,11.104 L15.1071229,9.78 Z M8.99794442,11.8 C7.40692688,11.8 6.12013492,10.548 6.12013492,9 C6.12013492,7.452 7.40692688,6.2 8.99794442,6.2 C10.588962,6.2 11.8757539,7.452 11.8757539,9 C11.8757539,10.548 10.588962,11.8 8.99794442,11.8 Z" id="Shape" fill="#7FBEDC" fill-rule="nonzero"></path>
        </g>
    </g>
</svg>