<svg xmlns="http://www.w3.org/2000/svg" width="18" height="18" viewBox="0 0 18 18">
    <path fill="#7CCAF9" fill-rule="evenodd" d="M5.25 9A3.754 3.754 0 0 0 9 12.75 3.755 3.755 0 0 0 12.75 9 3.755 3.755 0 0 0 9 5.25 3.754 3.754 0 0 0 5.25 9zm-1.5 0A5.255 5.255 0 0 1 9 3.752a5.255 5.255 0 0 1 5.25 5.25A5.256 5.256 0 0 1 9 14.25 5.256 5.256 0 0 1 3.75 9zM9 18a.75.75 0 0 1-.75-.75v-1.5a.749.749 0 1 1 1.5 0v1.5A.75.75 0 0 1 9 18zM9 3a.75.75 0 0 1-.75-.75V.75a.75.75 0 1 1 1.5 0v1.5A.75.75 0 0 1 9 3zM0 9a.75.75 0 0 1 .75-.75h1.5a.749.749 0 1 1 0 1.5H.75A.75.75 0 0 1 0 9zm15 0a.75.75 0 0 1 .75-.75h1.5a.75.75 0 0 1 0 1.5h-1.5A.75.75 0 0 1 15 9zM2.634 15.364a.75.75 0 0 1 0-1.06l1.06-1.061a.75.75 0 1 1 1.062 1.06l-1.062 1.06a.75.75 0 0 1-1.06 0zM13.243 4.757a.749.749 0 0 1 0-1.06l1.06-1.06a.75.75 0 0 1 1.06 1.06l-1.06 1.06a.75.75 0 0 1-1.06 0zM2.635 2.637a.75.75 0 0 1 1.06 0l1.062 1.06a.75.75 0 1 1-1.061 1.06l-1.06-1.06a.75.75 0 0 1 0-1.06zm10.608 10.606a.75.75 0 0 1 1.06 0l1.06 1.062a.748.748 0 0 1 0 1.06.751.751 0 0 1-1.06 0l-1.06-1.062a.749.749 0 0 1 0-1.06z"/>
</svg>
