<svg xmlns="http://www.w3.org/2000/svg" xmlns:xlink="http://www.w3.org/1999/xlink" width="20" height="10" viewBox="0 0 20 10">
    <defs>
        <path id="a" d="M0 0h20v20H0z"/>
    </defs>
    <g fill="none" fill-rule="evenodd" transform="translate(0 -5)">
        <mask id="b" fill="#fff">
            <use xlink:href="#a"/>
        </mask>
        <path fill="#7CCAF9" fill-rule="nonzero" d="M19.167 6.667c0 .916-.75 1.666-1.667 1.666-.15 0-.292-.016-.425-.058l-2.967 2.958c.042.134.059.284.059.434 0 .916-.75 1.666-1.667 1.666a1.672 1.672 0 0 1-1.608-2.1L8.767 9.108a1.472 1.472 0 0 1-.434.059c-.15 0-.3-.017-.433-.059l-3.792 3.8c.042.134.059.275.059.425C4.167 14.25 3.417 15 2.5 15S.833 14.25.833 13.333c0-.916.75-1.666 1.667-1.666.15 0 .292.016.425.058l3.8-3.792a1.672 1.672 0 0 1 1.608-2.1 1.672 1.672 0 0 1 1.609 2.1l2.125 2.125c.133-.041.283-.058.433-.058.15 0 .3.017.433.058l2.959-2.966a1.416 1.416 0 0 1-.059-.425c0-.917.75-1.667 1.667-1.667s1.667.75 1.667 1.667z" mask="url(#b)"/>
    </g>
</svg>
