<svg xmlns="http://www.w3.org/2000/svg" width="24" height="24" viewBox="0 0 24 24">
    <defs>
        <filter id="a" width="101.1%" height="125%" x="-.5%" y="-8.9%" filterUnits="objectBoundingBox">
            <feOffset dy="2" in="SourceAlpha" result="shadowOffsetOuter1"/>
            <feGaussianBlur in="shadowOffsetOuter1" result="shadowBlurOuter1" stdDeviation="2"/>
            <feColorMatrix in="shadowBlurOuter1" result="shadowMatrixOuter1" values="0 0 0 0 0 0 0 0 0 0 0 0 0 0 0 0 0 0 0.272475091 0"/>
            <feMerge>
                <feMergeNode in="shadowMatrixOuter1"/>
                <feMergeNode in="SourceGraphic"/>
            </feMerge>
        </filter>
    </defs>
    <g fill="none" fill-rule="evenodd" filter="url(#a)" transform="translate(-1227 -19)">
        <path d="M1229 19h20v20h-20z"/>
        <path fill="#9DB4BF" d="M1241.158 31.992l1.175 1.175L1246.5 29l-4.167-4.167-1.175 1.175 2.15 2.159h-8.058v1.666h8.058l-2.15 2.159zm-7.991 4.508h11.666c.925 0 1.667-.75 1.667-1.667v-2.5l-1.667.834v1.666h-11.666V23.167h11.666v1.666l1.667.834v-2.5c0-.917-.742-1.667-1.667-1.667h-11.666c-.917 0-1.667.75-1.667 1.667v11.666c0 .917.75 1.667 1.667 1.667z"/>
    </g>
</svg>
