<?xml version="1.0" encoding="UTF-8"?>
<svg width="32px" height="32px" viewBox="0 0 32 32" version="1.1" xmlns="http://www.w3.org/2000/svg" xmlns:xlink="http://www.w3.org/1999/xlink">
    <!-- Generator: Sketch 50.2 (55047) - http://www.bohemiancoding.com/sketch -->
    <title>off</title>
    <desc>Created with Sketch.</desc>
    <defs></defs>
    <g id="off" stroke="none" stroke-width="1" fill="none" fill-rule="evenodd">
        <circle id="Oval" fill="#F87777" cx="16" cy="16" r="16"></circle>
        <g id="ic-power-settings-new-24px" transform="translate(6.000000, 6.000000)">
            <polygon id="Shape" points="0 0 20 0 20 20 0 20"></polygon>
            <path d="M10.8333333,2.5 L9.16666667,2.5 L9.16666667,10.8333333 L10.8333333,10.8333333 L10.8333333,2.5 Z M14.8583333,4.30833333 L13.675,5.49166667 C14.9916667,6.55 15.8333333,8.175 15.8333333,10 C15.8333333,13.225 13.225,15.8333333 10,15.8333333 C6.775,15.8333333 4.16666667,13.225 4.16666667,10 C4.16666667,8.175 5.00833333,6.55 6.31666667,5.48333333 L5.14166667,4.30833333 C3.525,5.68333333 2.5,7.71666667 2.5,10 C2.5,14.1416667 5.85833333,17.5 10,17.5 C14.1416667,17.5 17.5,14.1416667 17.5,10 C17.5,7.71666667 16.475,5.68333333 14.8583333,4.30833333 Z" id="Shape" fill="#FFFFFF" fill-rule="nonzero"></path>
        </g>
    </g>
</svg>