<?xml version="1.0" encoding="UTF-8" standalone="no"?>
<svg width="64px" height="14px" viewBox="0 0 64 14" version="1.1" xmlns="http://www.w3.org/2000/svg" xmlns:xlink="http://www.w3.org/1999/xlink">
    <!-- Generator: Sketch 50.2 (55047) - http://www.bohemiancoding.com/sketch -->
    <title>offline</title>
    <desc>Created with Sketch.</desc>
    <defs></defs>
    <g id="Wifi-status" stroke="none" stroke-width="1" fill="none" fill-rule="evenodd">
        <g id="Vector" transform="translate(-21.000000, -40.000000)">
            <g id="offline" transform="translate(11.000000, 38.000000)">
                <path d="M29.9000015,10.6953125 C29.9000015,9.44530625 30.2385398,8.41536863 30.9156265,7.60546875 C31.5927132,6.79556887 32.5119749,6.390625 33.673439,6.390625 C34.8453199,6.390625 35.7710919,6.7942668 36.4507828,7.6015625 C37.1304737,8.4088582 37.470314,9.44009789 37.470314,10.6953125 L37.470314,10.8671875 C37.470314,12.1276105 37.1317757,13.1588502 36.454689,13.9609375 C35.7776023,14.7630248 34.8557365,15.1640625 33.689064,15.1640625 C32.5223915,15.1640625 31.5992237,14.7617228 30.9195328,13.9570312 C30.2398419,13.1523397 29.9000015,12.1224021 29.9000015,10.8671875 L29.9000015,10.6953125 Z M31.439064,10.8671875 C31.439064,11.7630253 31.6278642,12.5026012 32.0054703,13.0859375 C32.3830763,13.6692738 32.9442686,13.9609375 33.689064,13.9609375 C34.4234427,13.9609375 34.9807288,13.6692738 35.360939,13.0859375 C35.7411493,12.5026012 35.9312515,11.7630253 35.9312515,10.8671875 L35.9312515,10.6953125 C35.9312515,9.80989141 35.7398472,9.07291961 35.3570328,8.484375 C34.9742184,7.89583039 34.4130261,7.6015625 33.673439,7.6015625 C32.9390604,7.6015625 32.3830763,7.89583039 32.0054703,8.484375 C31.6278642,9.07291961 31.439064,9.80989141 31.439064,10.6953125 L31.439064,10.8671875 Z M39.9937515,15 L39.9937515,7.6875 L38.673439,7.6875 L38.673439,6.546875 L39.9937515,6.546875 L39.9937515,5.4765625 C39.9937515,4.57551633 40.2294263,3.87890871 40.7007828,3.38671875 C41.1721393,2.89452879 41.8296848,2.6484375 42.673439,2.6484375 C42.8505232,2.6484375 43.0289069,2.66276027 43.2085953,2.69140625 C43.3882837,2.72005223 43.5875004,2.76041641 43.8062515,2.8125 L43.6187515,3.984375 C43.5250011,3.96354156 43.4117209,3.94531258 43.2789078,3.9296875 C43.1460946,3.91406242 43.0067731,3.90625 42.860939,3.90625 C42.4130201,3.90625 42.0796901,4.04036324 41.860939,4.30859375 C41.6421879,4.57682426 41.532814,4.96614328 41.532814,5.4765625 L41.532814,6.546875 L43.064064,6.546875 L43.064064,7.6875 L41.532814,7.6875 L41.532814,15 L39.9937515,15 Z M45.2593765,15 L45.2593765,7.6875 L43.939064,7.6875 L43.939064,6.546875 L45.2593765,6.546875 L45.2593765,5.4765625 C45.2593765,4.57551633 45.4950513,3.87890871 45.9664078,3.38671875 C46.4377643,2.89452879 47.0953098,2.6484375 47.939064,2.6484375 C48.1161482,2.6484375 48.2945319,2.66276027 48.4742203,2.69140625 C48.6539087,2.72005223 48.8531254,2.76041641 49.0718765,2.8125 L48.8843765,3.984375 C48.7906261,3.96354156 48.6773459,3.94531258 48.5445328,3.9296875 C48.4117196,3.91406242 48.2723981,3.90625 48.126564,3.90625 C47.6786451,3.90625 47.3453151,4.04036324 47.126564,4.30859375 C46.9078129,4.57682426 46.798439,4.96614328 46.798439,5.4765625 L46.798439,6.546875 L48.329689,6.546875 L48.329689,7.6875 L46.798439,7.6875 L46.798439,15 L45.2593765,15 Z M51.548439,15 L50.0093765,15 L50.0093765,2.8125 L51.548439,2.8125 L51.548439,15 Z M55.579689,15 L54.0406265,15 L54.0406265,6.546875 L55.579689,6.546875 L55.579689,15 Z M55.579689,4.3828125 L54.0406265,4.3828125 L54.0406265,2.8125 L55.579689,2.8125 L55.579689,4.3828125 Z M59.3218765,6.546875 L59.4312515,7.8046875 C59.7125029,7.35676859 60.065364,7.00911582 60.4898453,6.76171875 C60.9143266,6.51432168 61.3973947,6.390625 61.939064,6.390625 C62.8505269,6.390625 63.556249,6.65754941 64.0562515,7.19140625 C64.556254,7.72526309 64.8062515,8.54947359 64.8062515,9.6640625 L64.8062515,15 L63.267189,15 L63.267189,9.6953125 C63.267189,8.95051711 63.1200551,8.42187656 62.8257828,8.109375 C62.5315105,7.79687344 62.0822962,7.640625 61.4781265,7.640625 C61.0041658,7.640625 60.6018261,7.73567613 60.2710953,7.92578125 C59.9403645,8.11588637 59.6786483,8.38281078 59.485939,8.7265625 L59.485939,15 L57.9468765,15 L57.9468765,6.546875 L59.3218765,6.546875 Z M70.5406265,15.1640625 C69.3270788,15.1640625 68.3804737,14.7760455 67.7007828,14 C67.0210919,13.2239545 66.6812515,12.2031313 66.6812515,10.9375 L66.6812515,10.59375 C66.6812515,9.38020227 67.0315084,8.37630605 67.7320328,7.58203125 C68.4325571,6.78775645 69.2880173,6.390625 70.298439,6.390625 C71.428653,6.390625 72.2763008,6.74218398 72.8414078,7.4453125 C73.4065148,8.14844102 73.689064,9.0833275 73.689064,10.25 L73.689064,11.0625 L68.282814,11.0625 L68.2593765,11.1015625 C68.2593765,11.9505251 68.4468747,12.6393203 68.8218765,13.1679688 C69.1968784,13.6966172 69.7697893,13.9609375 70.5406265,13.9609375 C71.0614625,13.9609375 71.5184891,13.8867195 71.9117203,13.7382812 C72.3049514,13.589843 72.6421876,13.385418 72.923439,13.125 L73.5250015,14.125 C73.2229167,14.4166681 72.8244832,14.6627594 72.329689,14.8632812 C71.8348949,15.0638031 71.2385467,15.1640625 70.5406265,15.1640625 Z M70.298439,7.6015625 C69.761978,7.6015625 69.317972,7.80859168 68.9664078,8.22265625 C68.6148435,8.63672082 68.4000019,9.16666344 68.3218765,9.8125 L68.3375015,9.8515625 L72.1500015,9.8515625 L72.1500015,9.7265625 C72.1500015,9.11197609 71.9989614,8.60416867 71.6968765,8.203125 C71.3947917,7.80208133 70.9286505,7.6015625 70.298439,7.6015625 Z" fill="#9DB4BF"></path>
                <path d="M25,6.21029423 C24.7100515,6.01380458 21.8266753,3.89865122 17.5,3.89865122 C16.5302835,3.89865122 15.6378866,4.00845426 14.8260309,4.17604838 L21.4819588,10.1400874 L25,6.21029423 Z M11.8782216,3 L11.056701,3.73683621 L12.380799,4.92444281 C11.001933,5.4936849 10.1514175,6.10915985 10,6.21318379 L17.4935567,14.5871106 L20.0193299,11.7755748 L22.1552835,13.6913489 L22.9768041,12.9545127 L11.8782216,3 Z" id="Shape" fill="#9B9B9B" fill-rule="nonzero"></path>
            </g>
        </g>
    </g>
</svg>