<?xml version="1.0" encoding="UTF-8" standalone="no"?>
<svg width="63px" height="14px" viewBox="0 0 63 14" version="1.1" xmlns="http://www.w3.org/2000/svg" xmlns:xlink="http://www.w3.org/1999/xlink">
    <!-- Generator: Sketch 50.2 (55047) - http://www.bohemiancoding.com/sketch -->
    <title>Online</title>
    <desc>Created with Sketch.</desc>
    <defs></defs>
    <g id="Wifi-status" stroke="none" stroke-width="1" fill="none" fill-rule="evenodd">
        <g id="Vector" transform="translate(-21.000000, -16.000000)">
            <g id="Online" transform="translate(21.000000, 16.000000)">
                <path d="M19.9000015,8.6953125 C19.9000015,7.44530625 20.2385398,6.41536863 20.9156265,5.60546875 C21.5927132,4.79556887 22.5119749,4.390625 23.673439,4.390625 C24.8453199,4.390625 25.7710919,4.7942668 26.4507828,5.6015625 C27.1304737,6.4088582 27.470314,7.44009789 27.470314,8.6953125 L27.470314,8.8671875 C27.470314,10.1276105 27.1317757,11.1588502 26.454689,11.9609375 C25.7776023,12.7630248 24.8557365,13.1640625 23.689064,13.1640625 C22.5223915,13.1640625 21.5992237,12.7617228 20.9195328,11.9570312 C20.2398419,11.1523397 19.9000015,10.1224021 19.9000015,8.8671875 L19.9000015,8.6953125 Z M21.439064,8.8671875 C21.439064,9.76302531 21.6278642,10.5026012 22.0054703,11.0859375 C22.3830763,11.6692738 22.9442686,11.9609375 23.689064,11.9609375 C24.4234427,11.9609375 24.9807288,11.6692738 25.360939,11.0859375 C25.7411493,10.5026012 25.9312515,9.76302531 25.9312515,8.8671875 L25.9312515,8.6953125 C25.9312515,7.80989141 25.7398472,7.07291961 25.3570328,6.484375 C24.9742184,5.89583039 24.4130261,5.6015625 23.673439,5.6015625 C22.9390604,5.6015625 22.3830763,5.89583039 22.0054703,6.484375 C21.6278642,7.07291961 21.439064,7.80989141 21.439064,8.6953125 L21.439064,8.8671875 Z M30.7281265,4.546875 L30.8375015,5.8046875 C31.1187529,5.35676859 31.471614,5.00911582 31.8960953,4.76171875 C32.3205766,4.51432168 32.8036447,4.390625 33.345314,4.390625 C34.2567769,4.390625 34.962499,4.65754941 35.4625015,5.19140625 C35.962504,5.72526309 36.2125015,6.54947359 36.2125015,7.6640625 L36.2125015,13 L34.673439,13 L34.673439,7.6953125 C34.673439,6.95051711 34.5263051,6.42187656 34.2320328,6.109375 C33.9377605,5.79687344 33.4885462,5.640625 32.8843765,5.640625 C32.4104158,5.640625 32.0080761,5.73567613 31.6773453,5.92578125 C31.3466145,6.11588637 31.0848983,6.38281078 30.892189,6.7265625 L30.892189,13 L29.3531265,13 L29.3531265,4.546875 L30.7281265,4.546875 Z M40.110939,13 L38.5718765,13 L38.5718765,0.8125 L40.110939,0.8125 L40.110939,13 Z M44.142189,13 L42.6031265,13 L42.6031265,4.546875 L44.142189,4.546875 L44.142189,13 Z M44.142189,2.3828125 L42.6031265,2.3828125 L42.6031265,0.8125 L44.142189,0.8125 L44.142189,2.3828125 Z M47.8843765,4.546875 L47.9937515,5.8046875 C48.2750029,5.35676859 48.627864,5.00911582 49.0523453,4.76171875 C49.4768266,4.51432168 49.9598947,4.390625 50.501564,4.390625 C51.4130269,4.390625 52.118749,4.65754941 52.6187515,5.19140625 C53.118754,5.72526309 53.3687515,6.54947359 53.3687515,7.6640625 L53.3687515,13 L51.829689,13 L51.829689,7.6953125 C51.829689,6.95051711 51.6825551,6.42187656 51.3882828,6.109375 C51.0940105,5.79687344 50.6447962,5.640625 50.0406265,5.640625 C49.5666658,5.640625 49.1643261,5.73567613 48.8335953,5.92578125 C48.5028645,6.11588637 48.2411483,6.38281078 48.048439,6.7265625 L48.048439,13 L46.5093765,13 L46.5093765,4.546875 L47.8843765,4.546875 Z M59.1031265,13.1640625 C57.8895788,13.1640625 56.9429737,12.7760455 56.2632828,12 C55.5835919,11.2239545 55.2437515,10.2031313 55.2437515,8.9375 L55.2437515,8.59375 C55.2437515,7.38020227 55.5940084,6.37630605 56.2945328,5.58203125 C56.9950571,4.78775645 57.8505173,4.390625 58.860939,4.390625 C59.991153,4.390625 60.8388008,4.74218398 61.4039078,5.4453125 C61.9690148,6.14844102 62.251564,7.0833275 62.251564,8.25 L62.251564,9.0625 L56.845314,9.0625 L56.8218765,9.1015625 C56.8218765,9.95052508 57.0093747,10.6393203 57.3843765,11.1679688 C57.7593784,11.6966172 58.3322893,11.9609375 59.1031265,11.9609375 C59.6239625,11.9609375 60.0809891,11.8867195 60.4742203,11.7382812 C60.8674514,11.589843 61.2046876,11.385418 61.485939,11.125 L62.0875015,12.125 C61.7854167,12.4166681 61.3869832,12.6627594 60.892189,12.8632812 C60.3973949,13.0638031 59.8010467,13.1640625 59.1031265,13.1640625 Z M58.860939,5.6015625 C58.324478,5.6015625 57.880472,5.80859168 57.5289078,6.22265625 C57.1773435,6.63672082 56.9625019,7.16666344 56.8843765,7.8125 L56.9000015,7.8515625 L60.7125015,7.8515625 L60.7125015,7.7265625 C60.7125015,7.11197609 60.5614614,6.60416867 60.2593765,6.203125 C59.9572917,5.80208133 59.4911505,5.6015625 58.860939,5.6015625 Z" id="online" fill="#9DB4BF"></path>
                <path d="M7.50851305,13.0909091 L15,4.01039704 C14.7105562,3.79498343 11.8246311,1.5 7.5,1.5 C3.1753689,1.5 0.289443814,3.79498343 0,4.01039704 L7.49148695,13.0909091 L7.50851305,13.0909091 Z" id="Shape" fill="#7FDCAD" fill-rule="nonzero"></path>
            </g>
        </g>
    </g>
</svg>