<svg xmlns="http://www.w3.org/2000/svg" width="14" height="14" viewBox="0 0 14 14">
    <path fill="#7CCAF9" fill-rule="evenodd" d="M12.91 4.905s-1.342 1.21-3.39 2.022a2.754 2.754 0 0 0-.168-.883c.763-.715 2.75-3.138 2.566-4.019C11.654.76 7.858-.753 8.228.577c0 0 .327 1.825-.028 4.093a2.424 2.424 0 0 0-.813-.288C7.18 3.33 6.175.312 5.357.04c-1.176-.392-4.32 2.304-3.04 2.633 0 0 1.67.615 3.362 2.072-.245.159-.463.36-.643.595-.97-.336-3.963-.933-4.597-.325-.911.873-.26 5.082.65 4.08 0 0 1.343-1.21 3.391-2.021.008.31.067.608.168.883-.763.715-2.75 3.138-2.566 4.019.264 1.265 4.06 2.778 3.69 1.448 0 0-.327-1.825.028-4.093.249.142.523.24.813.288.208 1.052 1.212 4.07 2.03 4.343 1.176.392 4.32-2.304 3.04-2.633 0 0-1.67-.615-3.362-2.072.245-.159.463-.36.643-.595.603.209 1.987.519 3.1.577a6.485 6.485 0 0 0 .487.008c.46-.012.83-.087 1.01-.26.911-.873.26-5.082-.65-4.08zM7 8.332c-.7 0-1.268-.597-1.268-1.332 0-.735.568-1.332 1.268-1.332.7 0 1.268.597 1.268 1.332 0 .735-.568 1.332-1.268 1.332z"/>
</svg>
