<svg xmlns="http://www.w3.org/2000/svg" width="8" height="16" viewBox="0 0 8 16">
    <g fill="#7CCAF9" fill-rule="evenodd">
        <path d="M5.253 10.471l-.555-.399V5.073H3.302v5l-.555.398c-.535.385-.842.962-.842 1.583 0 1.1.94 1.995 2.095 1.995 1.156 0 2.095-.895 2.095-1.995 0-.621-.307-1.198-.842-1.583"/>
        <path d="M4 1.333c-.735 0-1.334.598-1.334 1.334V9.68l-.264.2A2.645 2.645 0 0 0 1.334 12 2.67 2.67 0 0 0 4 14.667 2.67 2.67 0 0 0 6.666 12c0-.834-.388-1.606-1.068-2.12l-.264-.2V2.667c0-.736-.599-1.334-1.334-1.334zM4 16c-2.206 0-4-1.794-4-4 0-1.142.482-2.205 1.334-2.966V2.667A2.67 2.67 0 0 1 4 0a2.67 2.67 0 0 1 2.666 2.667v6.367A3.953 3.953 0 0 1 8 12c0 2.206-1.794 4-4 4z"/>
    </g>
</svg>
