<?xml version="1.0" encoding="UTF-8"?>
<svg width="18px" height="18px" viewBox="0 0 18 18" version="1.1" xmlns="http://www.w3.org/2000/svg" xmlns:xlink="http://www.w3.org/1999/xlink">
    <!-- Generator: Sketch 51.2 (57519) - http://www.bohemiancoding.com/sketch -->
    <title>thermostat-inactive</title>
    <desc>Created with Sketch.</desc>
    <defs></defs>
    <g id="thermostat-inactive" stroke="none" stroke-width="1" fill="none" fill-rule="evenodd">
        <path d="M3,0.855273298 L3,17.1448139 C7,18.285062 11,18.285062 15,17.1448139 L15,0.855273298 C11,-0.285091099 7,-0.285091099 3,0.855273298 Z M5.43034946,13.459307 L7.10116488,13.459307 L7.10116488,11.7531227 L5.43034946,11.7531227 L5.43034946,13.459307 Z M8.16453533,16.2511815 L9.83546467,16.2511815 L9.83546467,14.5449972 L8.16453533,14.5449972 L8.16453533,16.2511815 Z M8.16453533,13.459307 L9.83546467,13.459307 L9.83546467,11.7531227 L8.16453533,11.7531227 L8.16453533,13.459307 Z M8.16453533,10.6674325 L9.83546467,10.6674325 L9.83546467,8.9612482 L8.16453533,8.9612482 L8.16453533,10.6674325 Z M10.8987212,13.459307 L12.5696505,13.459307 L12.5696505,11.7531227 L10.8987212,11.7531227 L10.8987212,13.459307 Z M4.97465182,7.27379273 L13.0253482,7.27379273 L13.0253482,2.58321095 L4.97465182,2.58321095 L4.97465182,7.27379273 Z" id="Fill-21-Copy" fill="#7A8D97"></path>
    </g>
</svg>